<?xml version="1.0" encoding="UTF-8" standalone="no"?>
<svg
   xmlns:dc="http://purl.org/dc/elements/1.1/"
   xmlns:cc="http://creativecommons.org/ns#"
   xmlns:rdf="http://www.w3.org/1999/02/22-rdf-syntax-ns#"
   xmlns:svg="http://www.w3.org/2000/svg"
   xmlns="http://www.w3.org/2000/svg"
   id="svg2"
   version="1.1"
   xml:space="preserve"
   width="1036.5511"
   height="511.86624"
   viewBox="0 0 1036.5511 511.86624"><metadata
     id="metadata8"><rdf:RDF><cc:Work
         rdf:about=""><dc:format>image/svg+xml</dc:format><dc:type
           rdf:resource="http://purl.org/dc/dcmitype/StillImage" /></cc:Work></rdf:RDF></metadata><defs
     id="defs6"><clipPath
       clipPathUnits="userSpaceOnUse"
       id="clipPath70"><path
         d="m 0,409.493 829.241,0 L 829.241,0 0,0 0,409.493 Z"
         id="path72" /></clipPath><clipPath
       clipPathUnits="userSpaceOnUse"
       id="clipPath126"><path
         d="m 0,409.493 829.241,0 L 829.241,0 0,0 0,409.493 Z"
         id="path128" /></clipPath><clipPath
       clipPathUnits="userSpaceOnUse"
       id="clipPath142"><path
         d="m 0,409.493 829.241,0 L 829.241,0 0,0 0,409.493 Z"
         id="path144" /></clipPath><clipPath
       clipPathUnits="userSpaceOnUse"
       id="clipPath158"><path
         d="m 0,409.493 829.241,0 L 829.241,0 0,0 0,409.493 Z"
         id="path160" /></clipPath><clipPath
       clipPathUnits="userSpaceOnUse"
       id="clipPath174"><path
         d="m 0,409.493 829.241,0 L 829.241,0 0,0 0,409.493 Z"
         id="path176" /></clipPath><clipPath
       clipPathUnits="userSpaceOnUse"
       id="clipPath190"><path
         d="m 0,409.493 829.241,0 L 829.241,0 0,0 0,409.493 Z"
         id="path192" /></clipPath><clipPath
       clipPathUnits="userSpaceOnUse"
       id="clipPath214"><path
         d="m 0,409.493 829.241,0 L 829.241,0 0,0 0,409.493 Z"
         id="path216" /></clipPath><clipPath
       clipPathUnits="userSpaceOnUse"
       id="clipPath234"><path
         d="m 0,409.493 829.241,0 L 829.241,0 0,0 0,409.493 Z"
         id="path236" /></clipPath><clipPath
       clipPathUnits="userSpaceOnUse"
       id="clipPath254"><path
         d="m 0,409.493 829.241,0 L 829.241,0 0,0 0,409.493 Z"
         id="path256" /></clipPath><clipPath
       clipPathUnits="userSpaceOnUse"
       id="clipPath274"><path
         d="m 0,409.493 829.241,0 L 829.241,0 0,0 0,409.493 Z"
         id="path276" /></clipPath><clipPath
       clipPathUnits="userSpaceOnUse"
       id="clipPath294"><path
         d="m 0,409.493 829.241,0 L 829.241,0 0,0 0,409.493 Z"
         id="path296" /></clipPath><clipPath
       clipPathUnits="userSpaceOnUse"
       id="clipPath314"><path
         d="m 0,409.493 829.241,0 L 829.241,0 0,0 0,409.493 Z"
         id="path316" /></clipPath><clipPath
       clipPathUnits="userSpaceOnUse"
       id="clipPath390"><path
         d="m 0,409.493 829.241,0 L 829.241,0 0,0 0,409.493 Z"
         id="path392" /></clipPath></defs><g
     id="g10"
     transform="matrix(1.25,0,0,-1.25,0,511.86625)"><path
       d="m 39.041,134.473 773.879,0 0,0.72 -773.879,0 0,-0.72 z"
       style="fill:#dbdad8;fill-opacity:1;fill-rule:nonzero;stroke:none"
       id="path12" /><path
       d="m 39.041,135.193 773.879,0 0,-0.72 -773.879,0 0,0.72 z"
       style="fill:none;stroke:#dbdad8;stroke-width:0.12;stroke-linecap:butt;stroke-linejoin:bevel;stroke-miterlimit:10;stroke-dasharray:none;stroke-opacity:1"
       id="path14" /><path
       d="m 39.041,172.754 773.879,0 0,0.719 -773.879,0 0,-0.719 z"
       style="fill:#dbdad8;fill-opacity:1;fill-rule:nonzero;stroke:none"
       id="path16" /><path
       d="m 39.041,173.474 773.879,0 0,-0.72 -773.879,0 0,0.72 z"
       style="fill:none;stroke:#dbdad8;stroke-width:0.12;stroke-linecap:butt;stroke-linejoin:bevel;stroke-miterlimit:10;stroke-dasharray:none;stroke-opacity:1"
       id="path18" /><path
       d="m 39.041,211.154 773.879,0 0,0.721 -773.879,0 0,-0.721 z"
       style="fill:#dbdad8;fill-opacity:1;fill-rule:nonzero;stroke:none"
       id="path20" /><path
       d="m 39.041,211.874 773.879,0 0,-0.721 -773.879,0 0,0.721 z"
       style="fill:none;stroke:#dbdad8;stroke-width:0.12;stroke-linecap:butt;stroke-linejoin:bevel;stroke-miterlimit:10;stroke-dasharray:none;stroke-opacity:1"
       id="path22" /><path
       d="m 39.041,249.433 773.879,0 0,0.72 -773.879,0 0,-0.72 z"
       style="fill:#dbdad8;fill-opacity:1;fill-rule:nonzero;stroke:none"
       id="path24" /><path
       d="m 39.041,250.153 773.879,0 0,-0.72 -773.879,0 0,0.72 z"
       style="fill:none;stroke:#dbdad8;stroke-width:0.12;stroke-linecap:butt;stroke-linejoin:bevel;stroke-miterlimit:10;stroke-dasharray:none;stroke-opacity:1"
       id="path26" /><path
       d="m 39.041,287.834 773.879,0 0,0.719 -773.879,0 0,-0.719 z"
       style="fill:#dbdad8;fill-opacity:1;fill-rule:nonzero;stroke:none"
       id="path28" /><path
       d="m 39.041,288.554 773.879,0 0,-0.72 -773.879,0 0,0.72 z"
       style="fill:none;stroke:#dbdad8;stroke-width:0.12;stroke-linecap:butt;stroke-linejoin:bevel;stroke-miterlimit:10;stroke-dasharray:none;stroke-opacity:1"
       id="path30" /><path
       d="m 39.041,326.234 773.879,0 0,0.72 -773.879,0 0,-0.72 z"
       style="fill:#dbdad8;fill-opacity:1;fill-rule:nonzero;stroke:none"
       id="path32" /><path
       d="m 39.041,326.954 773.879,0 0,-0.721 -773.879,0 0,0.721 z"
       style="fill:none;stroke:#dbdad8;stroke-width:0.12;stroke-linecap:butt;stroke-linejoin:bevel;stroke-miterlimit:10;stroke-dasharray:none;stroke-opacity:1"
       id="path34" /><path
       d="m 39.041,364.513 773.879,0 0,0.72 -773.879,0 0,-0.72 z"
       style="fill:#dbdad8;fill-opacity:1;fill-rule:nonzero;stroke:none"
       id="path36" /><path
       d="m 39.041,365.233 773.879,0 0,-0.72 -773.879,0 0,0.72 z"
       style="fill:none;stroke:#dbdad8;stroke-width:0.12;stroke-linecap:butt;stroke-linejoin:bevel;stroke-miterlimit:10;stroke-dasharray:none;stroke-opacity:1"
       id="path38" /><path
       d="m 39.041,402.913 773.879,0 0,0.721 -773.879,0 0,-0.721 z"
       style="fill:#dbdad8;fill-opacity:1;fill-rule:nonzero;stroke:none"
       id="path40" /><path
       d="m 39.041,403.634 773.879,0 0,-0.721 -773.879,0 0,0.721 z"
       style="fill:none;stroke:#dbdad8;stroke-width:0.12;stroke-linecap:butt;stroke-linejoin:bevel;stroke-miterlimit:10;stroke-dasharray:none;stroke-opacity:1"
       id="path42" /><g
       id="g44"
       transform="translate(782.6704,403.7041)"><path
         d="m 0,0 -0.35,-307.271 -0.72,0 L -0.721,0 0,0 Z m -30.959,0 -0.35,-307.271 -0.72,0 L -31.68,0 l 0.721,0 z m -30.961,0 -0.35,-307.271 -0.72,0 L -62.641,0 -61.92,0 Z m -30.959,0 -0.35,-307.271 -0.72,0 L -93.6,0 l 0.721,0 z m -61.92,0 -0.349,-307.271 -0.721,0 0.349,307.271 0.721,0 z m -30.842,0 -0.349,-307.271 -0.719,0 0.35,307.271 0.718,0 z m -30.959,0 -0.349,-307.271 -0.721,0 0.35,307.271 0.72,0 z m -30.961,0 -0.349,-307.271 -0.719,0 0.35,307.271 0.718,0 z m -61.919,0 -0.35,-307.271 -0.719,0 0.35,307.271 0.719,0 z m -30.959,0 -0.35,-307.271 -0.721,0 0.35,307.271 0.721,0 z m -30.961,0 -0.35,-307.271 -0.719,0 0.349,307.271 0.72,0 z m -30.96,0 -0.349,-307.271 -0.72,0 0.349,307.271 0.72,0 z m -61.92,0 -0.349,-307.271 -0.721,0 L -465,0 l 0.72,0 z m -30.96,0 -0.349,-307.271 -0.721,0 0.35,307.271 0.72,0 z m -30.96,0 -0.349,-307.271 -0.721,0 0.35,307.271 0.72,0 z m -30.96,0 -0.349,-307.271 -0.72,0 0.349,307.271 0.72,0 z m -61.92,0 -0.349,-307.271 -0.72,0 L -619.8,0 l 0.72,0 z m -30.96,0 -0.349,-307.271 -0.72,0 0.349,307.271 0.72,0 z m -30.96,0 -0.35,-307.271 -0.719,0 L -681.72,0 -681,0 Z m -30.96,0 -0.35,-307.271 -0.719,0 0.349,307.271 0.72,0 z"
         style="fill:#f6f6f6;fill-opacity:1;fill-rule:nonzero;stroke:none"
         id="path46" /></g><g
       id="g48"
       transform="translate(782.6704,403.7041)"><path
         d="m 0,0 -0.35,-307.271 -0.72,0 L -0.721,0 0,0 Z m -30.959,0 -0.35,-307.271 -0.72,0 L -31.68,0 l 0.721,0 z m -30.961,0 -0.35,-307.271 -0.72,0 L -62.641,0 -61.92,0 Z m -30.959,0 -0.35,-307.271 -0.72,0 L -93.6,0 l 0.721,0 z m -61.92,0 -0.349,-307.271 -0.721,0 0.349,307.271 0.721,0 z m -30.842,0 -0.349,-307.271 -0.719,0 0.35,307.271 0.718,0 z m -30.959,0 -0.349,-307.271 -0.721,0 0.35,307.271 0.72,0 z m -30.961,0 -0.349,-307.271 -0.719,0 0.35,307.271 0.718,0 z m -61.919,0 -0.35,-307.271 -0.719,0 0.35,307.271 0.719,0 z m -30.959,0 -0.35,-307.271 -0.721,0 0.35,307.271 0.721,0 z m -30.961,0 -0.35,-307.271 -0.719,0 0.349,307.271 0.72,0 z m -30.96,0 -0.349,-307.271 -0.72,0 0.349,307.271 0.72,0 z m -61.92,0 -0.349,-307.271 -0.721,0 L -465,0 l 0.72,0 z m -30.96,0 -0.349,-307.271 -0.721,0 0.35,307.271 0.72,0 z m -30.96,0 -0.349,-307.271 -0.721,0 0.35,307.271 0.72,0 z m -30.96,0 -0.349,-307.271 -0.72,0 0.349,307.271 0.72,0 z m -61.92,0 -0.349,-307.271 -0.72,0 L -619.8,0 l 0.72,0 z m -30.96,0 -0.349,-307.271 -0.72,0 0.349,307.271 0.72,0 z m -30.96,0 -0.35,-307.271 -0.719,0 L -681.72,0 -681,0 Z m -30.96,0 -0.35,-307.271 -0.719,0 0.349,307.271 0.72,0 z"
         style="fill:none;stroke:#f6f6f6;stroke-width:0.12;stroke-linecap:butt;stroke-linejoin:bevel;stroke-miterlimit:10;stroke-dasharray:none;stroke-opacity:1"
         id="path50" /></g><g
       id="g52"
       transform="translate(813.6313,403.7041)"><path
         d="m 0,0 -0.35,-307.271 -0.72,0 L -0.721,0 0,0 Z m -154.801,0 -0.349,-307.271 -0.721,0 0.35,307.271 0.72,0 z m -154.679,0 -0.35,-307.271 -0.721,0 0.35,307.271 0.721,0 z m -154.801,0 -0.349,-307.271 -0.72,0 L -465,0 l 0.719,0 z m -154.8,0 -0.349,-307.271 -0.72,0 0.349,307.271 0.72,0 z m -154.8,0 -0.349,-307.271 -0.72,0 0.349,307.271 0.72,0 z"
         style="fill:#dbdad8;fill-opacity:1;fill-rule:nonzero;stroke:none"
         id="path54" /></g><g
       id="g56"
       transform="translate(813.6313,403.7041)"><path
         d="m 0,0 -0.35,-307.271 -0.72,0 L -0.721,0 0,0 Z m -154.801,0 -0.349,-307.271 -0.721,0 0.35,307.271 0.72,0 z m -154.679,0 -0.35,-307.271 -0.721,0 0.35,307.271 0.721,0 z m -154.801,0 -0.349,-307.271 -0.72,0 L -465,0 l 0.719,0 z m -154.8,0 -0.349,-307.271 -0.72,0 0.349,307.271 0.72,0 z m -154.8,0 -0.349,-307.271 -0.72,0 0.349,307.271 0.72,0 z"
         style="fill:none;stroke:#dbdad8;stroke-width:0.12;stroke-linecap:butt;stroke-linejoin:bevel;stroke-miterlimit:10;stroke-dasharray:none;stroke-opacity:1"
         id="path58" /></g><path
       d="m 39.041,96.074 773.879,0 0,0.72 -773.879,0 0,-0.72 z"
       style="fill:#dbdad8;fill-opacity:1;fill-rule:nonzero;stroke:none"
       id="path60" /><path
       d="m 39.041,96.794 773.879,0 0,-0.72 -773.879,0 0,0.72 z"
       style="fill:none;stroke:#dbdad8;stroke-width:0.12;stroke-linecap:butt;stroke-linejoin:bevel;stroke-miterlimit:10;stroke-dasharray:none;stroke-opacity:1"
       id="path62" /><path
       d="m 813.282,96.434 -0.721,0 0,5.04 0.721,0 0,-5.04 z m -154.801,0 -0.721,0 0,5.04 0.721,0 0,-5.04 z m -154.68,0 -0.721,0 0,5.04 0.721,0 0,-5.04 z m -154.8,0 -0.72,0 0,5.04 0.72,0 0,-5.04 z m -154.8,0 -0.72,0 0,5.04 0.72,0 0,-5.04 z m -154.8,0 -0.72,0 0,5.04 0.72,0 0,-5.04 z m 773.881,0 -0.721,0 0,3.84 0.721,0 0,-3.84 z m -30.961,0 -0.721,0 0,3.84 0.721,0 0,-3.84 z m -30.959,0 -0.721,0 0,3.84 0.721,0 0,-3.84 z m -30.961,0 -0.721,0 0,3.84 0.721,0 0,-3.84 z m -30.959,0 -0.721,0 0,3.84 0.721,0 0,-3.84 z m -30.961,0 -0.721,0 0,3.84 0.721,0 0,-3.84 z m -30.959,0 -0.721,0 0,3.84 0.721,0 0,-3.84 z m -30.842,0 -0.719,0 0,3.84 0.719,0 0,-3.84 z m -30.959,0 -0.721,0 0,3.84 0.721,0 0,-3.84 z m -30.961,0 -0.719,0 0,3.84 0.719,0 0,-3.84 z m -30.959,0 -0.721,0 0,3.84 0.721,0 0,-3.84 z m -30.961,0 -0.719,0 0,3.84 0.719,0 0,-3.84 z m -30.959,0 -0.721,0 0,3.84 0.721,0 0,-3.84 z m -30.96,0 -0.72,0 0,3.84 0.72,0 0,-3.84 z m -30.96,0 -0.72,0 0,3.84 0.72,0 0,-3.84 z m -30.96,0 -0.72,0 0,3.84 0.72,0 0,-3.84 z m -30.96,0 -0.72,0 0,3.84 0.72,0 0,-3.84 z m -30.96,0 -0.72,0 0,3.84 0.72,0 0,-3.84 z m -30.96,0 -0.72,0 0,3.84 0.72,0 0,-3.84 z m -30.96,0 -0.72,0 0,3.84 0.72,0 0,-3.84 z m -30.96,0 -0.72,0 0,3.84 0.72,0 0,-3.84 z m -30.96,0 -0.72,0 0,3.84 0.72,0 0,-3.84 z m -30.96,0 -0.72,0 0,3.84 0.72,0 0,-3.84 z m -30.96,0 -0.72,0 0,3.84 0.72,0 0,-3.84 z m -30.96,0 -0.72,0 0,3.84 0.72,0 0,-3.84 z m -30.96,0 -0.72,0 0,3.84 0.72,0 0,-3.84 z"
       style="fill:#dbdad8;fill-opacity:1;fill-rule:nonzero;stroke:#dbdad8;stroke-width:0.12;stroke-linecap:butt;stroke-linejoin:bevel;stroke-miterlimit:10;stroke-dasharray:none;stroke-opacity:1"
       id="path64" /><g
       id="g66"><g
         id="g68"
         clip-path="url(#clipPath70)"><g
           id="g74"
           transform="translate(815.4106,113.7441)"><path
             d="m 0,0 c 0,-1.381 -1.109,-2.521 -2.52,-2.521 -1.38,0 -2.519,1.14 -2.519,2.521 0,1.38 1.139,2.52 2.519,2.52 C -1.109,2.52 0,1.38 0,0"
             style="fill:#a3c6e9;fill-opacity:1;fill-rule:nonzero;stroke:none"
             id="path76" /></g><g
           id="g78"
           transform="translate(194.771,133.2139)"><path
             d="m 0,0 30.96,-11.521 -1.44,0.091 30.96,7.68 31.11,3.899 31.11,1.921 30.96,1.92 30.81,3.84 31.11,1.92 -0.69,-0.15 30.961,11.52 c 0.359,0.15 0.75,0.21 1.17,0.15 l 30.958,-3.84 -0.9,-0.06 30.961,7.68 c 0.51,0.12 1.08,0.09 1.561,-0.12 l 30.959,-13.44 -1.44,0.15 30.959,5.759 31.262,1.951 -1.022,-0.3 30.961,17.28 c 0.449,0.27 0.959,0.359 1.5,0.3 l 30.959,-3.84 -1.5,-0.3 30.961,17.28 c 0.36,0.209 0.75,0.33 1.17,0.33 l 30.959,0 c 0.301,0 0.602,-0.06 0.871,-0.18 l 30.959,-11.521 -1.83,-0.029 30.961,13.44 c 0.631,0.27 1.32,0.27 1.949,0 L 619.2,38.37 c 1.26,-0.54 1.83,-2.01 1.289,-3.24 -0.539,-1.26 -2.01,-1.83 -3.238,-1.29 l -30.961,13.44 1.949,0 -30.959,-13.44 c -0.57,-0.24 -1.23,-0.27 -1.83,-0.03 l -30.961,11.52 0.84,-0.15 -30.959,0 1.199,0.299 L 464.61,28.2 c -0.451,-0.27 -0.961,-0.36 -1.5,-0.301 l -30.961,3.841 1.5,0.3 -30.959,-17.28 c -0.3,-0.18 -0.66,-0.3 -1.019,-0.3 L 370.979,12.57 340.021,6.81 C 339.54,6.72 339.06,6.78 338.61,6.96 L 307.649,20.399 309.21,20.28 278.251,12.6 c -0.301,-0.06 -0.602,-0.09 -0.9,-0.06 l -30.961,3.84 1.17,0.15 L 216.6,5.01 C 216.39,4.92 216.15,4.86 215.91,4.86 L 185.1,2.939 153.99,-0.9 123.03,-2.82 92.22,-4.74 61.65,-8.521 30.69,-16.2 c -0.48,-0.12 -0.99,-0.09 -1.44,0.09 L -1.71,-4.59 C -3,-4.14 -3.63,-2.7 -3.15,-1.44 -2.7,-0.15 -1.26,0.479 0,0"
             style="fill:#e83f50;fill-opacity:1;fill-rule:nonzero;stroke:none"
             id="path80" /></g><g
           id="g82"
           transform="translate(194.771,133.2139)"><path
             d="m 0,0 30.96,-11.521 -1.44,0.091 30.96,7.68 31.11,3.899 31.11,1.921 30.96,1.92 30.81,3.84 31.11,1.92 -0.69,-0.15 30.961,11.52 c 0.359,0.15 0.75,0.21 1.17,0.15 l 30.958,-3.84 -0.9,-0.06 30.961,7.68 c 0.51,0.12 1.08,0.09 1.561,-0.12 l 30.959,-13.44 -1.44,0.15 30.959,5.759 31.262,1.951 -1.022,-0.3 30.961,17.28 c 0.449,0.27 0.959,0.359 1.5,0.3 l 30.959,-3.84 -1.5,-0.3 30.961,17.28 c 0.36,0.209 0.75,0.33 1.17,0.33 l 30.959,0 c 0.301,0 0.602,-0.06 0.871,-0.18 l 30.959,-11.521 -1.83,-0.029 30.961,13.44 c 0.631,0.27 1.32,0.27 1.949,0 L 619.2,38.37 c 1.26,-0.54 1.83,-2.01 1.289,-3.24 -0.539,-1.26 -2.01,-1.83 -3.238,-1.29 l -30.961,13.44 1.949,0 -30.959,-13.44 c -0.57,-0.24 -1.23,-0.27 -1.83,-0.03 l -30.961,11.52 0.84,-0.15 -30.959,0 1.199,0.299 L 464.61,28.2 c -0.451,-0.27 -0.961,-0.36 -1.5,-0.301 l -30.961,3.841 1.5,0.3 -30.959,-17.28 c -0.3,-0.18 -0.66,-0.3 -1.019,-0.3 L 370.979,12.57 340.021,6.81 C 339.54,6.72 339.06,6.78 338.61,6.96 L 307.649,20.399 309.21,20.28 278.251,12.6 c -0.301,-0.06 -0.602,-0.09 -0.9,-0.06 l -30.961,3.84 1.17,0.15 L 216.6,5.01 C 216.39,4.92 216.15,4.86 215.91,4.86 L 185.1,2.939 153.99,-0.9 123.03,-2.82 92.22,-4.74 61.65,-8.521 30.69,-16.2 c -0.48,-0.12 -0.99,-0.09 -1.44,0.09 L -1.71,-4.59 C -3,-4.14 -3.63,-2.7 -3.15,-1.44 -2.7,-0.15 -1.26,0.479 0,0 Z"
             style="fill:none;stroke:#e83f50;stroke-width:0.12;stroke-linecap:butt;stroke-linejoin:bevel;stroke-miterlimit:10;stroke-dasharray:none;stroke-opacity:1"
             id="path84" /></g><g
           id="g86"
           transform="translate(534.6704,148.7236)"><path
             d="m 0,0 30.961,-3.84 31.08,-5.79 -1.17,-0.059 30.959,9.599 c 0.24,0.06 0.481,0.12 0.721,0.12 l 30.959,0 30.961,0 -0.571,-0.09 30.961,7.68 31.229,3.901 31.111,1.919 31.11,0.03 c 1.38,0 2.46,-1.11 2.46,-2.46 0,-1.38 -1.08,-2.46 -2.46,-2.46 l -30.78,0 -30.81,-1.92 -30.69,-3.779 -30.961,-7.681 c -0.179,-0.06 -0.39,-0.06 -0.599,-0.06 l -30.961,0 -30.959,0 0.75,0.09 -30.961,-9.599 C 61.951,-14.52 61.561,-14.55 61.141,-14.46 L 30.33,-8.729 -0.629,-4.89 C -1.979,-4.71 -2.91,-3.479 -2.76,-2.13 -2.58,-0.78 -1.35,0.15 0,0"
             style="fill:#64b235;fill-opacity:1;fill-rule:nonzero;stroke:none"
             id="path88" /></g><g
           id="g90"
           transform="translate(534.6704,148.7236)"><path
             d="m 0,0 30.961,-3.84 31.08,-5.79 -1.17,-0.059 30.959,9.599 c 0.24,0.06 0.481,0.12 0.721,0.12 l 30.959,0 30.961,0 -0.571,-0.09 30.961,7.68 31.229,3.901 31.111,1.919 31.11,0.03 c 1.38,0 2.46,-1.11 2.46,-2.46 0,-1.38 -1.08,-2.46 -2.46,-2.46 l -30.78,0 -30.81,-1.92 -30.69,-3.779 -30.961,-7.681 c -0.179,-0.06 -0.39,-0.06 -0.599,-0.06 l -30.961,0 -30.959,0 0.75,0.09 -30.961,-9.599 C 61.951,-14.52 61.561,-14.55 61.141,-14.46 L 30.33,-8.729 -0.629,-4.89 C -1.979,-4.71 -2.91,-3.479 -2.76,-2.13 -2.58,-0.78 -1.35,0.15 0,0 Z"
             style="fill:none;stroke:#64b235;stroke-width:0.12;stroke-linecap:butt;stroke-linejoin:bevel;stroke-miterlimit:10;stroke-dasharray:none;stroke-opacity:1"
             id="path92" /></g><g
           id="g94"
           transform="translate(688.6919,137.1738)"><path
             d="m 0,0 30.959,5.76 c 0.301,0.06 0.631,0.06 0.9,0 L 62.818,0 l -0.449,0.06 30.961,0 c 0.18,0 0.328,-0.03 0.449,-0.06 l 30.959,-5.76 c 1.352,-0.24 2.221,-1.53 1.981,-2.85 -0.24,-1.35 -1.53,-2.22 -2.879,-1.98 l -30.961,5.76 0.451,-0.03 -30.961,0 c -0.15,0 -0.301,0 -0.449,0.03 l -30.961,5.76 0.9,0 L 0.898,-4.83 C -0.42,-5.07 -1.711,-4.2 -1.951,-2.85 -2.191,-1.53 -1.32,-0.24 0,0"
             style="fill:#b356b2;fill-opacity:1;fill-rule:nonzero;stroke:none"
             id="path96" /></g><g
           id="g98"
           transform="translate(688.6919,137.1738)"><path
             d="m 0,0 30.959,5.76 c 0.301,0.06 0.631,0.06 0.9,0 L 62.818,0 l -0.449,0.06 30.961,0 c 0.18,0 0.328,-0.03 0.449,-0.06 l 30.959,-5.76 c 1.352,-0.24 2.221,-1.53 1.981,-2.85 -0.24,-1.35 -1.53,-2.22 -2.879,-1.98 l -30.961,5.76 0.451,-0.03 -30.961,0 c -0.15,0 -0.301,0 -0.449,0.03 l -30.961,5.76 0.9,0 L 0.898,-4.83 C -0.42,-5.07 -1.711,-4.2 -1.951,-2.85 -2.191,-1.53 -1.32,-0.24 0,0 Z"
             style="fill:none;stroke:#b356b2;stroke-width:0.12;stroke-linecap:butt;stroke-linejoin:bevel;stroke-miterlimit:10;stroke-dasharray:none;stroke-opacity:1"
             id="path100" /></g><g
           id="g102"
           transform="translate(656.022,306.5537)"><path
             d="m 0,0 30.959,57.6 c 0.449,0.81 1.26,1.32 2.16,1.32 l 30.959,0 c 0.721,0 1.381,-0.3 1.861,-0.84 L 96.898,23.52 92.85,22.98 123.809,84.3 c 0.3,0.57 0.781,0.99 1.349,1.2 l 30.961,11.52 c 1.26,0.48 2.699,-0.15 3.151,-1.44 0.48,-1.26 -0.151,-2.7 -1.442,-3.15 l -30.959,-11.52 1.35,1.199 L 97.26,20.79 C 96.869,20.04 96.18,19.561 95.369,19.439 94.559,19.35 93.75,19.65 93.209,20.25 L 62.25,54.811 64.078,54 33.119,54 35.309,55.29 4.35,-2.311 C 3.689,-3.51 2.219,-3.96 1.02,-3.33 -0.182,-2.67 -0.631,-1.2 0,0"
             style="fill:#a3a3a1;fill-opacity:1;fill-rule:nonzero;stroke:none"
             id="path104" /></g><g
           id="g106"
           transform="translate(656.022,306.5537)"><path
             d="m 0,0 30.959,57.6 c 0.449,0.81 1.26,1.32 2.16,1.32 l 30.959,0 c 0.721,0 1.381,-0.3 1.861,-0.84 L 96.898,23.52 92.85,22.98 123.809,84.3 c 0.3,0.57 0.781,0.99 1.349,1.2 l 30.961,11.52 c 1.26,0.48 2.699,-0.15 3.151,-1.44 0.48,-1.26 -0.151,-2.7 -1.442,-3.15 l -30.959,-11.52 1.35,1.199 L 97.26,20.79 C 96.869,20.04 96.18,19.561 95.369,19.439 94.559,19.35 93.75,19.65 93.209,20.25 L 62.25,54.811 64.078,54 33.119,54 35.309,55.29 4.35,-2.311 C 3.689,-3.51 2.219,-3.96 1.02,-3.33 -0.182,-2.67 -0.631,-1.2 0,0 Z"
             style="fill:none;stroke:#a3a3a1;stroke-width:0.12;stroke-linecap:butt;stroke-linejoin:bevel;stroke-miterlimit:10;stroke-dasharray:none;stroke-opacity:1"
             id="path108" /></g></g></g><text
       transform="matrix(1,0,0,-1,16.2031,91.7842)"
       style="font-variant:normal;font-weight:normal;font-stretch:normal;font-size:15.96000004px;font-family:Calibri;-inkscape-font-specification:Calibri;writing-mode:lr-tb;fill:#110f0d;fill-opacity:1;fill-rule:nonzero;stroke:none"
       id="text110"><tspan
         x="0"
         y="0"
         id="tspan112">0</tspan><tspan
         x="-8.1236401 0.031920001"
         y="-38.351879"
         id="tspan114">20</tspan><tspan
         x="-8.1236401 0.031920001"
         y="-76.687798"
         id="tspan116">40</tspan><tspan
         x="-8.1236401 0.031920001"
         y="-115.03968"
         id="tspan118">60</tspan><tspan
         x="-8.1236401 0.031920001"
         y="-153.39156"
         id="tspan120">80</tspan></text>
<g
       id="g122"><g
         id="g124"
         clip-path="url(#clipPath126)"><text
           transform="matrix(1,0,0,-1,-0.0234,283.542)"
           style="font-variant:normal;font-weight:normal;font-stretch:normal;font-size:15.96000004px;font-family:Calibri;-inkscape-font-specification:Calibri;writing-mode:lr-tb;fill:#110f0d;fill-opacity:1;fill-rule:nonzero;stroke:none"
           id="text130"><tspan
             x="0"
             y="0"
             id="tspan132">1</tspan></text>
</g></g><text
       transform="matrix(1,0,0,-1,8.1294,283.542)"
       style="font-variant:normal;font-weight:normal;font-stretch:normal;font-size:15.96000004px;font-family:Calibri;-inkscape-font-specification:Calibri;writing-mode:lr-tb;fill:#110f0d;fill-opacity:1;fill-rule:nonzero;stroke:none"
       id="text134"><tspan
         x="0 8.0438404"
         y="0"
         id="tspan136">00</tspan></text>
<g
       id="g138"><g
         id="g140"
         clip-path="url(#clipPath142)"><text
           transform="matrix(1,0,0,-1,-0.0234,321.8936)"
           style="font-variant:normal;font-weight:normal;font-stretch:normal;font-size:15.96000004px;font-family:Calibri;-inkscape-font-specification:Calibri;writing-mode:lr-tb;fill:#110f0d;fill-opacity:1;fill-rule:nonzero;stroke:none"
           id="text146"><tspan
             x="0"
             y="0"
             id="tspan148">1</tspan></text>
</g></g><text
       transform="matrix(1,0,0,-1,8.1294,321.8936)"
       style="font-variant:normal;font-weight:normal;font-stretch:normal;font-size:15.96000004px;font-family:Calibri;-inkscape-font-specification:Calibri;writing-mode:lr-tb;fill:#110f0d;fill-opacity:1;fill-rule:nonzero;stroke:none"
       id="text150"><tspan
         x="0 8.0438404"
         y="0"
         id="tspan152">20</tspan></text>
<g
       id="g154"><g
         id="g156"
         clip-path="url(#clipPath158)"><text
           transform="matrix(1,0,0,-1,-0.0234,360.2373)"
           style="font-variant:normal;font-weight:normal;font-stretch:normal;font-size:15.96000004px;font-family:Calibri;-inkscape-font-specification:Calibri;writing-mode:lr-tb;fill:#110f0d;fill-opacity:1;fill-rule:nonzero;stroke:none"
           id="text162"><tspan
             x="0"
             y="0"
             id="tspan164">1</tspan></text>
</g></g><text
       transform="matrix(1,0,0,-1,8.1294,360.2373)"
       style="font-variant:normal;font-weight:normal;font-stretch:normal;font-size:15.96000004px;font-family:Calibri;-inkscape-font-specification:Calibri;writing-mode:lr-tb;fill:#110f0d;fill-opacity:1;fill-rule:nonzero;stroke:none"
       id="text166"><tspan
         x="0 8.0438404"
         y="0"
         id="tspan168">40</tspan></text>
<g
       id="g170"><g
         id="g172"
         clip-path="url(#clipPath174)"><text
           transform="matrix(1,0,0,-1,-0.0234,398.5967)"
           style="font-variant:normal;font-weight:normal;font-stretch:normal;font-size:15.96000004px;font-family:Calibri;-inkscape-font-specification:Calibri;writing-mode:lr-tb;fill:#110f0d;fill-opacity:1;fill-rule:nonzero;stroke:none"
           id="text178"><tspan
             x="0 8.1555595 16.1994"
             y="0"
             id="tspan180">160</tspan></text>
</g></g><text
       transform="matrix(1,0,0,-1,22.9297,70.9717)"
       style="font-variant:normal;font-weight:normal;font-stretch:normal;font-size:15.96000004px;font-family:Calibri;-inkscape-font-specification:Calibri;writing-mode:lr-tb;fill:#110f0d;fill-opacity:1;fill-rule:nonzero;stroke:none"
       id="text182"><tspan
         x="0 8.1555595 16.1994 24.354959 154.78008 162.93564 170.97948 179.13504 309.56015 317.71573 325.75955 333.91513 464.3562 472.51175 480.5556 488.71115 619.13629 627.29187 635.33569 643.49121 773.91638 782.0719 790.11578"
         y="0"
         id="tspan184">19901995200020052010201</tspan></text>
<g
       id="g186"><g
         id="g188"
         clip-path="url(#clipPath190)"><text
           transform="matrix(1,0,0,-1,821.1357,70.9717)"
           style="font-variant:normal;font-weight:normal;font-stretch:normal;font-size:15.96000004px;font-family:Calibri;-inkscape-font-specification:Calibri;writing-mode:lr-tb;fill:#110f0d;fill-opacity:1;fill-rule:nonzero;stroke:none"
           id="text194"><tspan
             x="0"
             y="0"
             id="tspan196">5</tspan></text>
<g
           id="g198"
           transform="translate(29.1411,53.9541)"><path
             d="m 0,0 19.2,0 c 1.365,0 2.46,-1.11 2.46,-2.46 0,-1.365 -1.095,-2.46 -2.46,-2.46 l -19.2,0 c -1.35,0 -2.46,1.095 -2.46,2.46 C -2.46,-1.11 -1.35,0 0,0"
             style="fill:#f9aa5e;fill-opacity:1;fill-rule:nonzero;stroke:none"
             id="path200" /></g><g
           id="g202"
           transform="translate(29.1411,53.9541)"><path
             d="m 0,0 19.2,0 c 1.365,0 2.46,-1.11 2.46,-2.46 0,-1.365 -1.095,-2.46 -2.46,-2.46 l -19.2,0 c -1.35,0 -2.46,1.095 -2.46,2.46 C -2.46,-1.11 -1.35,0 0,0 Z"
             style="fill:none;stroke:#f9aa5e;stroke-width:0.12;stroke-linecap:butt;stroke-linejoin:bevel;stroke-miterlimit:10;stroke-dasharray:none;stroke-opacity:1"
             id="path204" /></g></g></g><text
       transform="matrix(1,0,0,-1,57.59672,46.8545)"
       style="font-variant:normal;font-weight:normal;font-stretch:normal;font-size:15.96000004px;font-family:Calibri;-inkscape-font-specification:Calibri;writing-mode:lr-tb;fill:#110f0d;fill-opacity:1;fill-rule:nonzero;stroke:none"
       id="text206"><tspan
         x="0 9.1291199 12.83184 19.072201 22.679159 27.515039 35.606758 43.698479 51.790199 59.88192 64.765678 72.857399 80.94912 89.04084 97.132561 101.96844 105.5754"
         y="0"
         id="tspan208">Vis (1990-2011) /</tspan></text>
<g
       id="g210"><g
         id="g212"
         clip-path="url(#clipPath214)"><g
           id="g218"
           transform="translate(416.9409,53.9541)"><path
             d="m 0,0 19.2,0 c 1.365,0 2.46,-1.11 2.46,-2.46 0,-1.365 -1.095,-2.46 -2.46,-2.46 l -19.2,0 c -1.35,0 -2.46,1.095 -2.46,2.46 C -2.46,-1.11 -1.35,0 0,0"
             style="fill:#a3c6e9;fill-opacity:1;fill-rule:nonzero;stroke:none"
             id="path220" /></g><g
           id="g222"
           transform="translate(416.9409,53.9541)"><path
             d="m 0,0 19.2,0 c 1.365,0 2.46,-1.11 2.46,-2.46 0,-1.365 -1.095,-2.46 -2.46,-2.46 l -19.2,0 c -1.35,0 -2.46,1.095 -2.46,2.46 C -2.46,-1.11 -1.35,0 0,0 Z"
             style="fill:none;stroke:#a3c6e9;stroke-width:0.12;stroke-linecap:butt;stroke-linejoin:bevel;stroke-miterlimit:10;stroke-dasharray:none;stroke-opacity:1"
             id="path224" /></g></g></g><text
       transform="matrix(1,0,0,-1,445.40142,46.8545)"
       style="font-variant:normal;font-weight:normal;font-stretch:normal;font-size:15.96000004px;font-family:Calibri;-inkscape-font-specification:Calibri;writing-mode:lr-tb;fill:#110f0d;fill-opacity:1;fill-rule:nonzero;stroke:none"
       id="text226"><tspan
         x="0 7.4373598 14.17248 17.77944 26.892599 30.59532 36.835678 40.442638 47.177761 55.684441 64.063438"
         y="0"
         id="tspan228">SciVis conf</tspan></text>
<g
       id="g230"><g
         id="g232"
         clip-path="url(#clipPath234)"><g
           id="g238"
           transform="translate(584.7407,53.9541)"><path
             d="m 0,0 19.201,0 c 1.379,0 2.459,-1.11 2.459,-2.46 0,-1.38 -1.08,-2.46 -2.459,-2.46 L 0,-4.92 c -1.35,0 -2.459,1.08 -2.459,2.46 C -2.459,-1.11 -1.35,0 0,0"
             style="fill:#e83f50;fill-opacity:1;fill-rule:nonzero;stroke:none"
             id="path240" /></g><g
           id="g242"
           transform="translate(584.7407,53.9541)"><path
             d="m 0,0 19.201,0 c 1.379,0 2.459,-1.11 2.459,-2.46 0,-1.38 -1.08,-2.46 -2.459,-2.46 L 0,-4.92 c -1.35,0 -2.459,1.08 -2.459,2.46 C -2.459,-1.11 -1.35,0 0,0 Z"
             style="fill:none;stroke:#e83f50;stroke-width:0.12;stroke-linecap:butt;stroke-linejoin:bevel;stroke-miterlimit:10;stroke-dasharray:none;stroke-opacity:1"
             id="path244" /></g></g></g><text
       transform="matrix(1,0,0,-1,613.21392,46.8545)"
       style="font-variant:normal;font-weight:normal;font-stretch:normal;font-size:15.96000004px;font-family:Calibri;-inkscape-font-specification:Calibri;writing-mode:lr-tb;fill:#110f0d;fill-opacity:1;fill-rule:nonzero;stroke:none"
       id="text246"><tspan
         x="0 4.0697999 12.4488 17.38044 25.7754 34.888561 38.511478"
         y="0"
         id="tspan248">InfoVis</tspan></text>
<g
       id="g250"><g
         id="g252"
         clip-path="url(#clipPath254)"><g
           id="g258"
           transform="translate(29.1411,31.9941)"><path
             d="m 0,0 19.2,0 c 1.365,0 2.46,-1.11 2.46,-2.46 0,-1.365 -1.095,-2.46 -2.46,-2.46 l -19.2,0 c -1.35,0 -2.46,1.095 -2.46,2.46 C -2.46,-1.11 -1.35,0 0,0"
             style="fill:#64b235;fill-opacity:1;fill-rule:nonzero;stroke:none"
             id="path260" /></g><g
           id="g262"
           transform="translate(29.1411,31.9941)"><path
             d="m 0,0 19.2,0 c 1.365,0 2.46,-1.11 2.46,-2.46 0,-1.365 -1.095,-2.46 -2.46,-2.46 l -19.2,0 c -1.35,0 -2.46,1.095 -2.46,2.46 C -2.46,-1.11 -1.35,0 0,0 Z"
             style="fill:none;stroke:#64b235;stroke-width:0.12;stroke-linecap:butt;stroke-linejoin:bevel;stroke-miterlimit:10;stroke-dasharray:none;stroke-opacity:1"
             id="path264" /></g></g></g><text
       transform="matrix(1,0,0,-1,57.59672,24.9482)"
       style="font-variant:normal;font-weight:normal;font-stretch:normal;font-size:15.96000004px;font-family:Calibri;-inkscape-font-specification:Calibri;writing-mode:lr-tb;fill:#110f0d;fill-opacity:1;fill-rule:nonzero;stroke:none"
       id="text266"><tspan
         x="0 9.1291199 18.369961 25.695601"
         y="0"
         id="tspan268">VAST</tspan></text>
<g
       id="g270"><g
         id="g272"
         clip-path="url(#clipPath274)"><g
           id="g278"
           transform="translate(306.9409,31.9941)"><path
             d="m 0,0 19.2,0 c 1.365,0 2.46,-1.11 2.46,-2.46 0,-1.365 -1.095,-2.46 -2.46,-2.46 l -19.2,0 c -1.35,0 -2.46,1.095 -2.46,2.46 C -2.46,-1.11 -1.35,0 0,0"
             style="fill:#c3e6a7;fill-opacity:1;fill-rule:nonzero;stroke:none"
             id="path280" /></g><g
           id="g282"
           transform="translate(306.9409,31.9941)"><path
             d="m 0,0 19.2,0 c 1.365,0 2.46,-1.11 2.46,-2.46 0,-1.365 -1.095,-2.46 -2.46,-2.46 l -19.2,0 c -1.35,0 -2.46,1.095 -2.46,2.46 C -2.46,-1.11 -1.35,0 0,0 Z"
             style="fill:none;stroke:#c3e6a7;stroke-width:0.12;stroke-linecap:butt;stroke-linejoin:bevel;stroke-miterlimit:10;stroke-dasharray:none;stroke-opacity:1"
             id="path284" /></g></g></g><text
       transform="matrix(1,0,0,-1,335.40142,24.9482)"
       style="font-variant:normal;font-weight:normal;font-stretch:normal;font-size:15.96000004px;font-family:Calibri;-inkscape-font-specification:Calibri;writing-mode:lr-tb;fill:#110f0d;fill-opacity:1;fill-rule:nonzero;stroke:none"
       id="text286"><tspan
         x="0 9.1291199 18.369961 25.695601 33.484081 37.091042 43.921921 52.316879 60.695881"
         y="0"
         id="tspan288">VAST conf</tspan></text>
<g
       id="g290"><g
         id="g292"
         clip-path="url(#clipPath294)"><g
           id="g298"
           transform="translate(584.7407,31.9941)"><path
             d="m 0,0 19.201,0 c 1.379,0 2.459,-1.11 2.459,-2.46 0,-1.381 -1.08,-2.46 -2.459,-2.46 L 0,-4.92 c -1.35,0 -2.459,1.079 -2.459,2.46 C -2.459,-1.11 -1.35,0 0,0"
             style="fill:#525254;fill-opacity:1;fill-rule:nonzero;stroke:none"
             id="path300" /></g><g
           id="g302"
           transform="translate(584.7407,31.9941)"><path
             d="m 0,0 19.201,0 c 1.379,0 2.459,-1.11 2.459,-2.46 0,-1.381 -1.08,-2.46 -2.459,-2.46 L 0,-4.92 c -1.35,0 -2.459,1.079 -2.459,2.46 C -2.459,-1.11 -1.35,0 0,0 Z"
             style="fill:none;stroke:#525254;stroke-width:0.12;stroke-linecap:butt;stroke-linejoin:bevel;stroke-miterlimit:10;stroke-dasharray:none;stroke-opacity:1"
             id="path304" /></g></g></g><text
       transform="matrix(1,0,0,-1,613.21392,24.9482)"
       style="font-variant:normal;font-weight:normal;font-stretch:normal;font-size:15.96000004px;font-family:Calibri;-inkscape-font-specification:Calibri;writing-mode:lr-tb;fill:#110f0d;fill-opacity:1;fill-rule:nonzero;stroke:none"
       id="text306"><tspan
         x="0 9.1291199 13.19892 20.524561 26.669161 35.782318 39.500999 45.74136 59.913841 67.95768 75.889801 83.215439 86.822403 98.233803 104.4582 112.85316 116.46012 124.2486 133.36176 141.86844 151.93919 158.06784 166.70219 176.77296 187.68961"
         y="0"
         id="tspan308">VIS/VisWeek w/o TVCG/CG&amp;A</tspan></text>
<g
       id="g310"><g
         id="g312"
         clip-path="url(#clipPath314)"><g
           id="g318"
           transform="translate(29.1411,10.1533)"><path
             d="m 0,0 19.2,0 c 1.365,0 2.46,-1.109 2.46,-2.46 0,-1.364 -1.095,-2.46 -2.46,-2.46 l -19.2,0 c -1.35,0 -2.46,1.096 -2.46,2.46 C -2.46,-1.109 -1.35,0 0,0"
             style="fill:#b356b2;fill-opacity:1;fill-rule:nonzero;stroke:none"
             id="path320" /></g><g
           id="g322"
           transform="translate(29.1411,10.1533)"><path
             d="m 0,0 19.2,0 c 1.365,0 2.46,-1.109 2.46,-2.46 0,-1.364 -1.095,-2.46 -2.46,-2.46 l -19.2,0 c -1.35,0 -2.46,1.096 -2.46,2.46 C -2.46,-1.109 -1.35,0 0,0 Z"
             style="fill:none;stroke:#b356b2;stroke-width:0.12;stroke-linecap:butt;stroke-linejoin:bevel;stroke-miterlimit:10;stroke-dasharray:none;stroke-opacity:1"
             id="path324" /></g><text
           transform="matrix(1,0,0,-1,57.59672,3.042)"
           style="font-variant:normal;font-weight:normal;font-stretch:normal;font-size:15.96000004px;font-family:Calibri;-inkscape-font-specification:Calibri;writing-mode:lr-tb;fill:#110f0d;fill-opacity:1;fill-rule:nonzero;stroke:none"
           id="text326"><tspan
             x="0 7.7884798 16.90164 25.408319 35.47908 39.08604 53.354279 57.07296 66.074402 70.144203"
             y="0"
             id="tspan328">TVCG @ VIS</tspan></text>
<g
           id="g330"
           transform="translate(306.9409,10.1533)"><path
             d="m 0,0 19.2,0 c 1.365,0 2.46,-1.109 2.46,-2.46 0,-1.364 -1.095,-2.46 -2.46,-2.46 l -19.2,0 c -1.35,0 -2.46,1.096 -2.46,2.46 C -2.46,-1.109 -1.35,0 0,0"
             style="fill:#672d97;fill-opacity:1;fill-rule:nonzero;stroke:none"
             id="path332" /></g><g
           id="g334"
           transform="translate(306.9409,10.1533)"><path
             d="m 0,0 19.2,0 c 1.365,0 2.46,-1.109 2.46,-2.46 0,-1.364 -1.095,-2.46 -2.46,-2.46 l -19.2,0 c -1.35,0 -2.46,1.096 -2.46,2.46 C -2.46,-1.109 -1.35,0 0,0 Z"
             style="fill:none;stroke:#672d97;stroke-width:0.12;stroke-linecap:butt;stroke-linejoin:bevel;stroke-miterlimit:10;stroke-dasharray:none;stroke-opacity:1"
             id="path336" /></g><text
           transform="matrix(1,0,0,-1,335.40142,3.042)"
           style="font-variant:normal;font-weight:normal;font-stretch:normal;font-size:15.96000004px;font-family:Calibri;-inkscape-font-specification:Calibri;writing-mode:lr-tb;fill:#110f0d;fill-opacity:1;fill-rule:nonzero;stroke:none"
           id="text338"><tspan
             x="0 8.5066795 18.57744 29.49408 38.846642 42.453602 56.72184 60.3288 69.457916 73.431961"
             y="0"
             id="tspan340">CG&amp;A @ VIS</tspan></text>
<g
           id="g342"
           transform="translate(584.7407,10.1533)"><path
             d="m 0,0 19.201,0 c 1.379,0 2.459,-1.109 2.459,-2.46 0,-1.38 -1.08,-2.46 -2.459,-2.46 L 0,-4.92 c -1.35,0 -2.459,1.08 -2.459,2.46 C -2.459,-1.109 -1.35,0 0,0"
             style="fill:#a3a3a1;fill-opacity:1;fill-rule:nonzero;stroke:none"
             id="path344" /></g><g
           id="g346"
           transform="translate(584.7407,10.1533)"><path
             d="m 0,0 19.201,0 c 1.379,0 2.459,-1.109 2.459,-2.46 0,-1.38 -1.08,-2.46 -2.459,-2.46 L 0,-4.92 c -1.35,0 -2.459,1.08 -2.459,2.46 C -2.459,-1.109 -1.35,0 0,0 Z"
             style="fill:none;stroke:#a3a3a1;stroke-width:0.12;stroke-linecap:butt;stroke-linejoin:bevel;stroke-miterlimit:10;stroke-dasharray:none;stroke-opacity:1"
             id="path348" /></g><text
           transform="matrix(1,0,0,-1,613.21392,3.042)"
           style="font-variant:normal;font-weight:normal;font-stretch:normal;font-size:15.96000004px;font-family:Calibri;-inkscape-font-specification:Calibri;writing-mode:lr-tb;fill:#110f0d;fill-opacity:1;fill-rule:nonzero;stroke:none"
           id="text350"><tspan
             x="0 9.1291199 13.19892 20.524561 26.669161 35.782318 39.500999 45.74136 59.913841 67.95768 75.889801 83.215439 86.822403 90.44532 98.824318 105.6552 109.27812 113.34792 116.95488 124.74336 133.85652 142.3632 152.43396 158.65836 167.16504 177.23579 188.15244"
             y="0"
             id="tspan352">VIS/VisWeek incl. TVCG/CG&amp;A</tspan></text>
<g
           id="g354"
           transform="translate(160.9912,199.4834)"><path
             d="m 0,0 30.96,40.32 c 0.39,0.51 0.93,0.811 1.5,0.93 l 30.96,5.76 -0.93,-0.39 30.96,21.12 c 0.33,0.24 0.69,0.361 1.08,0.42 L 125.37,72 c 0.21,0.03 0.42,0.03 0.63,0 l 30.96,-3.84 -1.05,-0.09 30.96,9.6 31.23,5.82 30.69,9.42 c 0.15,0.03 0.3,0.061 0.42,0.09 l 30.959,3.84 c 0.391,0.06 0.811,0 1.17,-0.15 l 30.961,-11.52 -2.849,-0.84 30.959,42.24 c 0.66,0.901 1.83,1.231 2.849,0.84 L 374.22,115.891 405.179,104.37 436.38,88.92 433.439,88.351 464.4,122.91 c 0.75,0.84 1.949,1.051 2.939,0.57 l 30.961,-15.36 -2.4,-0.12 30.959,19.2 c 0.541,0.33 1.141,0.45 1.74,0.33 l 30.961,-5.759 c 0.481,-0.091 0.9,-0.3 1.231,-0.601 l 30.959,-28.8 -3.87,-0.72 30.959,61.44 c 0.571,1.14 1.891,1.65 3.061,1.201 l 30.959,-11.52 c 1.291,-0.451 1.922,-1.89 1.441,-3.151 -0.451,-1.29 -1.89,-1.92 -3.15,-1.44 l -30.961,11.52 3.061,1.2 -30.959,-61.439 c -0.362,-0.69 -1.022,-1.201 -1.772,-1.32 -0.75,-0.151 -1.529,0.089 -2.1,0.599 l -30.959,28.801 1.2,-0.601 -30.959,5.76 1.769,0.33 -30.961,-19.2 c -0.718,-0.449 -1.65,-0.51 -2.4,-0.119 l -30.959,15.359 2.939,0.571 L 437.13,85.08 c -0.75,-0.84 -1.951,-1.05 -2.941,-0.57 l -30.719,15.27 -30.961,11.521 -30.959,11.519 2.85,0.84 -30.961,-42.24 c -0.658,-0.899 -1.83,-1.23 -2.85,-0.84 L 279.63,92.101 280.8,91.95 249.84,88.11 250.23,88.2 219,78.66 188.34,72.961 157.38,63.36 c -0.33,-0.089 -0.69,-0.12 -1.05,-0.089 l -30.96,3.839 0.63,0 -30.84,-3.839 1.08,0.419 -30.96,-21.12 c -0.3,-0.21 -0.6,-0.33 -0.96,-0.39 L 33.36,36.42 34.89,37.351 3.93,-2.97 C 2.435,-3.334 1.685,-3.615 0.48,-3.449 -0.875,-3.263 -0.81,-1.05 0,0"
             style="fill:#525254;fill-opacity:1;fill-rule:nonzero;stroke:none"
             id="path356" /></g><g
           id="g358"
           transform="translate(160.9912,199.4834)"><path
             d="m 0,0 30.96,40.32 c 0.39,0.51 0.93,0.811 1.5,0.93 l 30.96,5.76 -0.93,-0.39 30.96,21.12 c 0.33,0.24 0.69,0.361 1.08,0.42 L 125.37,72 c 0.21,0.03 0.42,0.03 0.63,0 l 30.96,-3.84 -1.05,-0.09 30.96,9.6 31.23,5.82 30.69,9.42 c 0.15,0.03 0.3,0.061 0.42,0.09 l 30.959,3.84 c 0.391,0.06 0.811,0 1.17,-0.15 l 30.961,-11.52 -2.849,-0.84 30.959,42.24 c 0.66,0.901 1.83,1.231 2.849,0.84 L 374.22,115.891 405.179,104.37 436.38,88.92 433.439,88.351 464.4,122.91 c 0.75,0.84 1.949,1.051 2.939,0.57 l 30.961,-15.36 -2.4,-0.12 30.959,19.2 c 0.541,0.33 1.141,0.45 1.74,0.33 l 30.961,-5.759 c 0.481,-0.091 0.9,-0.3 1.231,-0.601 l 30.959,-28.8 -3.87,-0.72 30.959,61.44 c 0.571,1.14 1.891,1.65 3.061,1.201 l 30.959,-11.52 c 1.291,-0.451 1.922,-1.89 1.441,-3.151 -0.451,-1.29 -1.89,-1.92 -3.15,-1.44 l -30.961,11.52 3.061,1.2 -30.959,-61.439 c -0.362,-0.69 -1.022,-1.201 -1.772,-1.32 -0.75,-0.151 -1.529,0.089 -2.1,0.599 l -30.959,28.801 1.2,-0.601 -30.959,5.76 1.769,0.33 -30.961,-19.2 c -0.718,-0.449 -1.65,-0.51 -2.4,-0.119 l -30.959,15.359 2.939,0.571 L 437.13,85.08 c -0.75,-0.84 -1.951,-1.05 -2.941,-0.57 l -30.719,15.27 -30.961,11.521 -30.959,11.519 2.85,0.84 -30.961,-42.24 c -0.658,-0.899 -1.83,-1.23 -2.85,-0.84 L 279.63,92.101 280.8,91.95 249.84,88.11 250.23,88.2 219,78.66 188.34,72.961 157.38,63.36 c -0.33,-0.089 -0.69,-0.12 -1.05,-0.089 l -30.96,3.839 0.63,0 -30.84,-3.839 1.08,0.419 -30.96,-21.12 c -0.3,-0.21 -0.6,-0.33 -0.96,-0.39 L 33.36,36.42 34.89,37.351 3.93,-2.97 C 2.435,-3.334 1.685,-3.615 0.48,-3.449 -0.875,-3.263 -0.81,-1.05 0,0 Z"
             style="fill:none;stroke:#525254;stroke-width:0.12;stroke-linecap:butt;stroke-linejoin:bevel;stroke-miterlimit:10;stroke-dasharray:none;stroke-opacity:1"
             id="path360" /></g><g
           id="g362"
           transform="translate(783.0103,138.9434)"><path
             d="m 0,0 30.961,-13.439 c 1.26,-0.54 1.83,-2.01 1.289,-3.241 -0.539,-1.259 -2.01,-1.83 -3.238,-1.29 L -1.949,-4.529 c -1.26,0.54 -1.83,2.009 -1.289,3.239 C -2.699,-0.029 -1.229,0.54 0,0"
             style="fill:#c3e6a7;fill-opacity:1;fill-rule:nonzero;stroke:none"
             id="path364" /></g><g
           id="g366"
           transform="translate(783.0103,138.9434)"><path
             d="m 0,0 30.961,-13.439 c 1.26,-0.54 1.83,-2.01 1.289,-3.241 -0.539,-1.259 -2.01,-1.83 -3.238,-1.29 L -1.949,-4.529 c -1.26,0.54 -1.83,2.009 -1.289,3.239 C -2.699,-0.029 -1.229,0.54 0,0 Z"
             style="fill:none;stroke:#c3e6a7;stroke-width:0.12;stroke-linecap:butt;stroke-linejoin:bevel;stroke-miterlimit:10;stroke-dasharray:none;stroke-opacity:1"
             id="path368" /></g><g
           id="g370"
           transform="translate(815.4419,125.2334)"><path
             d="m 0,0 c 0,-1.409 -1.111,-2.52 -2.521,-2.52 -1.379,0 -2.52,1.111 -2.52,2.52 0,1.38 1.141,2.521 2.52,2.521 C -1.111,2.521 0,1.38 0,0"
             style="fill:#672d97;fill-opacity:1;fill-rule:nonzero;stroke:none"
             id="path372" /></g><g
           id="g374"
           transform="translate(175.2661,53.9541)"><path
             d="m 0,0 19.2,0 c 1.365,0 2.46,-1.11 2.46,-2.46 0,-1.365 -1.095,-2.46 -2.46,-2.46 l -19.2,0 c -1.35,0 -2.46,1.095 -2.46,2.46 C -2.46,-1.11 -1.35,0 0,0"
             style="fill:#669ad8;fill-opacity:1;fill-rule:nonzero;stroke:none"
             id="path376" /></g><g
           id="g378"
           transform="translate(175.2661,53.9541)"><path
             d="m 0,0 19.2,0 c 1.365,0 2.46,-1.11 2.46,-2.46 0,-1.365 -1.095,-2.46 -2.46,-2.46 l -19.2,0 c -1.35,0 -2.46,1.095 -2.46,2.46 C -2.46,-1.11 -1.35,0 0,0 Z"
             style="fill:none;stroke:#669ad8;stroke-width:0.12;stroke-linecap:butt;stroke-linejoin:bevel;stroke-miterlimit:10;stroke-dasharray:none;stroke-opacity:1"
             id="path380" /></g></g></g><text
       transform="matrix(1,0,0,-1,203.72172,46.8545)"
       style="font-variant:normal;font-weight:normal;font-stretch:normal;font-size:15.96000004px;font-family:Calibri;-inkscape-font-specification:Calibri;writing-mode:lr-tb;fill:#110f0d;fill-opacity:1;fill-rule:nonzero;stroke:none"
       id="text382"><tspan
         x="0 7.4373598 14.17248 17.77944 26.892599 30.61128 36.851639 40.458599 45.294479 53.3862 61.477921 69.569641 77.661362 81.268318 89.679237 98.058243 109.46964 117.11448 122.68452 131.06352"
         y="0"
         id="tspan384">SciVis (2012 onward)</tspan></text>
<g
       id="g386"><g
         id="g388"
         clip-path="url(#clipPath390)"><g
           id="g394"
           transform="translate(688.9907,192.7637)"><path
             d="M 0,0 C 0.391,0.029 0.781,-0.031 1.141,-0.18 L 32.1,-13.5 c 0.15,-0.061 0.271,-0.15 0.42,-0.24 l 30.96,-21.121 -1.859,0.39 30.959,5.76 c 0.211,0.031 0.42,0.061 0.631,0.031 l 30.959,-1.92 c 1.35,-0.06 2.371,-1.23 2.281,-2.611 -0.06,-1.35 -1.23,-2.369 -2.611,-2.279 l -30.959,1.92 0.599,0.029 -30.96,-5.76 c -0.629,-0.119 -1.29,0.031 -1.831,0.391 l -30.959,21.119 0.42,-0.24 -30.961,13.32 -0.432,1.898 L 0,0 Z"
             style="fill:#669ad8;fill-opacity:1;fill-rule:nonzero;stroke:none"
             id="path396" /></g><g
           id="g398"
           transform="translate(688.9907,192.7637)"><path
             d="M 0,0 C 0.391,0.029 0.781,-0.031 1.141,-0.18 L 32.1,-13.5 c 0.15,-0.061 0.271,-0.15 0.42,-0.24 l 30.96,-21.121 -1.859,0.39 30.959,5.76 c 0.211,0.031 0.42,0.061 0.631,0.031 l 30.959,-1.92 c 1.35,-0.06 2.371,-1.23 2.281,-2.611 -0.06,-1.35 -1.23,-2.369 -2.611,-2.279 l -30.959,1.92 0.599,0.029 -30.96,-5.76 c -0.629,-0.119 -1.29,0.031 -1.831,0.391 l -30.959,21.119 0.42,-0.24 -30.961,13.32 -0.432,1.898 L 0,0 Z"
             style="fill:none;stroke:#669ad8;stroke-width:0.12;stroke-linecap:butt;stroke-linejoin:bevel;stroke-miterlimit:10;stroke-dasharray:none;stroke-opacity:1"
             id="path400" /></g><g
           id="g402"
           transform="translate(690.7798,188.5898)"><path
             d="M 0,0 C -0.312,-0.484 -1.357,-0.706 -2.092,-0.755 -7,-1.078 -32.418,-2.636 -32.418,-2.636 c -0.361,-0.029 -0.691,0.03 -1.021,0.151 l -30.959,11.519 1.439,-0.09 -30.959,-7.679 c -0.48,-0.121 -0.99,-0.09 -1.441,0.089 l -31.08,11.551 -30.959,13.44 c -0.452,0.209 -0.84,0.509 -1.081,0.929 l -30.96,48 3.9,-0.3 -30.959,-34.559 c -0.631,-0.691 -1.561,-0.961 -2.432,-0.75 l -30.959,7.68 -30.96,7.679 1.17,0 -30.959,-7.679 c -0.151,-0.032 -0.301,-0.061 -0.42,-0.061 l -30.961,-1.92 0.42,0.061 -30.96,-7.68 c -0.33,-0.092 -0.69,-0.092 -1.05,-0.031 l -30.96,5.76 0.45,-0.03 -30.84,0 0.99,0.18 -30.75,-13.32 -30.96,-17.28 c -0.21,-0.119 -0.48,-0.211 -0.75,-0.269 l -30.96,-5.76 c -0.24,-0.06 -0.48,-0.06 -0.75,-0.031 l -30.96,3.84 0.63,0 -30.84,-3.809 -30.96,-5.76 c -0.27,-0.06 -0.6,-0.06 -0.9,0 l -30.96,5.76 c -1.32,0.24 -2.19,1.529 -1.95,2.879 0.24,1.32 1.53,2.189 2.85,1.951 l 30.96,-5.762 -0.9,0 30.96,5.762 31.11,3.869 c 0.21,0.03 0.42,0.03 0.63,0 l 30.96,-3.84 -0.78,-0.029 30.96,5.76 -0.72,-0.272 30.96,17.282 31.17,13.558 c 0.3,0.121 0.63,0.211 0.96,0.211 l 30.84,0 c 0.18,0 0.33,-0.029 0.45,-0.06 l 30.96,-5.76 -1.02,-0.029 30.96,7.679 c 0.15,0.03 0.27,0.061 0.42,0.061 l 30.961,1.92 -0.42,-0.061 30.959,7.68 c 0.391,0.09 0.779,0.09 1.17,0 l 30.96,-7.68 30.961,-7.679 -2.431,-0.75 30.96,34.56 c 0.51,0.568 1.26,0.869 2.04,0.809 0.75,-0.059 1.47,-0.481 1.861,-1.11 l 30.959,-48 -1.08,0.93 30.961,-13.439 30.84,-11.491 -1.44,0.09 30.959,7.68 c 0.481,0.121 0.99,0.09 1.44,-0.09 l 30.96,-11.52 -1.019,0.151 30.959,1.92 C -1.398,4.204 -1.012,4.138 -0.648,3.995 -0.062,3.766 0.35,3.003 0.531,2.344 0.828,1.266 0.221,0.342 0,0"
             style="fill:#f9aa5e;fill-opacity:1;fill-rule:nonzero;stroke:none"
             id="path404" /></g><g
           id="g406"
           transform="translate(690.7798,188.5898)"><path
             d="M 0,0 C -0.312,-0.484 -1.357,-0.706 -2.092,-0.755 -7,-1.078 -32.418,-2.636 -32.418,-2.636 c -0.361,-0.029 -0.691,0.03 -1.021,0.151 l -30.959,11.519 1.439,-0.09 -30.959,-7.679 c -0.48,-0.121 -0.99,-0.09 -1.441,0.089 l -31.08,11.551 -30.959,13.44 c -0.452,0.209 -0.84,0.509 -1.081,0.929 l -30.96,48 3.9,-0.3 -30.959,-34.559 c -0.631,-0.691 -1.561,-0.961 -2.432,-0.75 l -30.959,7.68 -30.96,7.679 1.17,0 -30.959,-7.679 c -0.151,-0.032 -0.301,-0.061 -0.42,-0.061 l -30.961,-1.92 0.42,0.061 -30.96,-7.68 c -0.33,-0.092 -0.69,-0.092 -1.05,-0.031 l -30.96,5.76 0.45,-0.03 -30.84,0 0.99,0.18 -30.75,-13.32 -30.96,-17.28 c -0.21,-0.119 -0.48,-0.211 -0.75,-0.269 l -30.96,-5.76 c -0.24,-0.06 -0.48,-0.06 -0.75,-0.031 l -30.96,3.84 0.63,0 -30.84,-3.809 -30.96,-5.76 c -0.27,-0.06 -0.6,-0.06 -0.9,0 l -30.96,5.76 c -1.32,0.24 -2.19,1.529 -1.95,2.879 0.24,1.32 1.53,2.189 2.85,1.951 l 30.96,-5.762 -0.9,0 30.96,5.762 31.11,3.869 c 0.21,0.03 0.42,0.03 0.63,0 l 30.96,-3.84 -0.78,-0.029 30.96,5.76 -0.72,-0.272 30.96,17.282 31.17,13.558 c 0.3,0.121 0.63,0.211 0.96,0.211 l 30.84,0 c 0.18,0 0.33,-0.029 0.45,-0.06 l 30.96,-5.76 -1.02,-0.029 30.96,7.679 c 0.15,0.03 0.27,0.061 0.42,0.061 l 30.961,1.92 -0.42,-0.061 30.959,7.68 c 0.391,0.09 0.779,0.09 1.17,0 l 30.96,-7.68 30.961,-7.679 -2.431,-0.75 30.96,34.56 c 0.51,0.568 1.26,0.869 2.04,0.809 0.75,-0.059 1.47,-0.481 1.861,-1.11 l 30.959,-48 -1.08,0.93 30.961,-13.439 30.84,-11.491 -1.44,0.09 30.959,7.68 c 0.481,0.121 0.99,0.09 1.44,-0.09 l 30.96,-11.52 -1.019,0.151 30.959,1.92 C -1.398,4.204 -1.012,4.138 -0.648,3.995 -0.062,3.766 0.35,3.003 0.531,2.344 0.828,1.266 0.221,0.342 0,0 Z"
             style="fill:none;stroke:#f9aa5e;stroke-width:0.12;stroke-linecap:butt;stroke-linejoin:bevel;stroke-miterlimit:10;stroke-dasharray:none;stroke-opacity:1"
             id="path408" /></g></g></g></g></svg>